<svg xmlns="http://www.w3.org/2000/svg" viewBox="0 0 1536 512" width="1536" height="512">
  <defs>
    <!-- Dark gradient background -->
    <linearGradient id="bg2" x1="0%" y1="0%" x2="100%" y2="100%">
      <stop offset="0%" stop-color="#0d1520"/>
      <stop offset="100%" stop-color="#1a1f35"/>
    </linearGradient>
    
    <!-- Azure blue -->
    <linearGradient id="azure2" x1="0%" y1="0%" x2="0%" y2="100%">
      <stop offset="0%" stop-color="#0078d4"/>
      <stop offset="100%" stop-color="#005a9e"/>
    </linearGradient>
    
    <!-- Flame -->
    <linearGradient id="flame2" x1="0%" y1="0%" x2="0%" y2="100%">
      <stop offset="0%" stop-color="#ffc857"/>
      <stop offset="100%" stop-color="#ff6b35"/>
    </linearGradient>
    
    <!-- Purple accent -->
    <linearGradient id="purple" x1="0%" y1="0%" x2="100%" y2="0%">
      <stop offset="0%" stop-color="#7c3aed"/>
      <stop offset="100%" stop-color="#0078d4"/>
    </linearGradient>
    
    <!-- Glow -->
    <radialGradient id="glow2" cx="50%" cy="50%" r="50%">
      <stop offset="0%" stop-color="#7c3aed" stop-opacity="0.15"/>
      <stop offset="70%" stop-color="#0078d4" stop-opacity="0.05"/>
      <stop offset="100%" stop-color="#0078d4" stop-opacity="0"/>
    </radialGradient>
  </defs>
  
  <!-- Background -->
  <rect width="1536" height="512" fill="url(#bg2)"/>
  
  <!-- Stars -->
  <g fill="white">
    <circle cx="120" cy="70" r="1.5" opacity="0.5"/>
    <circle cx="300" cy="380" r="1" opacity="0.4"/>
    <circle cx="500" cy="100" r="1" opacity="0.3"/>
    <circle cx="700" cy="450" r="1.5" opacity="0.4"/>
    <circle cx="950" cy="80" r="1" opacity="0.5"/>
    <circle cx="1100" cy="350" r="1" opacity="0.3"/>
    <circle cx="1300" cy="120" r="1.5" opacity="0.5"/>
    <circle cx="1450" cy="400" r="1" opacity="0.4"/>
  </g>
  
  <!-- Central glow -->
  <ellipse cx="768" cy="256" rx="400" ry="300" fill="url(#glow2)"/>
  
  <!-- Centered Rocket -->
  <g transform="translate(700, 80) scale(3.8)">
    <!-- Rocket body -->
    <path d="M30,5 C30,5 15,20 15,45 L15,65 L22,68 L22,62 L38,62 L38,68 L45,65 L45,45 C45,20 30,5 30,5 Z" fill="url(#azure2)"/>
    <!-- Fins -->
    <polygon points="15,55 5,70 15,67" fill="url(#azure2)"/>
    <polygon points="45,55 55,70 45,67" fill="url(#azure2)"/>
    <!-- A cutout -->
    <path d="M30,15 L21,50 L24,50 L26,42 L34,42 L36,50 L39,50 Z M28,38 L30,22 L32,38 Z" fill="#0d1520"/>
    <!-- Flame -->
    <polygon points="22,68 30,90 38,68" fill="url(#flame2)"/>
    <polygon points="24,68 30,85 36,68" fill="#ffc857"/>
  </g>
  
  <!-- Title centered below rocket -->
  <text x="768" y="420" font-family="Segoe UI, Arial, sans-serif" font-size="58" font-weight="800" fill="url(#purple)" text-anchor="middle" letter-spacing="3">STRAP A ROCKET TO YOUR BACK</text>
  
  <!-- Subtitle -->
  <text x="768" y="465" font-family="Segoe UI, Arial, sans-serif" font-size="28" font-weight="600" fill="#888888" text-anchor="middle">Take Your LEARNING to New Heights</text>
  
  <!-- CorreaX mark bottom right -->
  <g transform="translate(1430, 450) scale(0.7)" opacity="0.6">
    <path d="M16 2C8.268 2 2 8.268 2 16s6.268 14 14 14c3.866 0 7.389-1.568 9.928-4.1l-3.535-3.536A9.002 9.002 0 0116 25c-4.97 0-9-4.03-9-9s4.03-9 9-9c2.29 0 4.38.857 5.971 2.268l3.464-3.639C22.993 3.352 19.66 2 16 2z" fill="#7c3aed"/>
    <path d="M20 10l-4 6 4 6h4l-4-6 4-6h-4z" fill="#7c3aed"/>
    <path d="M24 10l4 6-4 6h4l4-6-4-6h-4z" fill="#7c3aed" opacity="0.5"/>
  </g>
  <text x="1458" y="475" font-family="Segoe UI, Arial, sans-serif" font-size="16" fill="#888888">CorreaX</text>
</svg>
