<svg xmlns="http://www.w3.org/2000/svg" viewBox="0 0 1536 512" width="1536" height="512">
  <defs>
    <!-- Teal gradient background -->
    <linearGradient id="bg3" x1="0%" y1="0%" x2="100%" y2="100%">
      <stop offset="0%" stop-color="#0a1628"/>
      <stop offset="50%" stop-color="#0d1f35"/>
      <stop offset="100%" stop-color="#0a1a2e"/>
    </linearGradient>
    
    <!-- Azure blue -->
    <linearGradient id="azure3" x1="0%" y1="0%" x2="0%" y2="100%">
      <stop offset="0%" stop-color="#0078d4"/>
      <stop offset="100%" stop-color="#005a9e"/>
    </linearGradient>
    
    <!-- Flame -->
    <linearGradient id="flame3" x1="0%" y1="0%" x2="0%" y2="100%">
      <stop offset="0%" stop-color="#ffc857"/>
      <stop offset="100%" stop-color="#ff6b35"/>
    </linearGradient>
    
    <!-- Teal accent -->
    <linearGradient id="teal" x1="0%" y1="0%" x2="100%" y2="0%">
      <stop offset="0%" stop-color="#0078d4"/>
      <stop offset="50%" stop-color="#14b8a6"/>
      <stop offset="100%" stop-color="#0078d4"/>
    </linearGradient>
    
    <!-- Dual glow -->
    <radialGradient id="glow3" cx="50%" cy="50%" r="50%">
      <stop offset="0%" stop-color="#14b8a6" stop-opacity="0.2"/>
      <stop offset="70%" stop-color="#0078d4" stop-opacity="0.05"/>
      <stop offset="100%" stop-color="#0078d4" stop-opacity="0"/>
    </radialGradient>
  </defs>
  
  <!-- Background -->
  <rect width="1536" height="512" fill="url(#bg3)"/>
  
  <!-- Stars scattered -->
  <g fill="white">
    <circle cx="150" cy="90" r="1" opacity="0.5"/>
    <circle cx="350" cy="60" r="1.5" opacity="0.4"/>
    <circle cx="250" cy="420" r="1" opacity="0.3"/>
    <circle cx="600" cy="130" r="1" opacity="0.4"/>
    <circle cx="800" cy="450" r="1.5" opacity="0.5"/>
    <circle cx="1050" cy="70" r="1" opacity="0.4"/>
    <circle cx="1250" cy="380" r="1" opacity="0.3"/>
    <circle cx="1400" cy="150" r="1.5" opacity="0.5"/>
  </g>
  
  <!-- Right side glow -->
  <ellipse cx="1150" cy="256" rx="350" ry="280" fill="url(#glow3)"/>
  
  <!-- Large Rocket (right side) -->
  <g transform="translate(1060, 100) scale(3.5)">
    <!-- Rocket body -->
    <path d="M30,5 C30,5 15,20 15,45 L15,65 L22,68 L22,62 L38,62 L38,68 L45,65 L45,45 C45,20 30,5 30,5 Z" fill="url(#azure3)"/>
    <!-- Fins -->
    <polygon points="15,55 5,70 15,67" fill="url(#azure3)"/>
    <polygon points="45,55 55,70 45,67" fill="url(#azure3)"/>
    <!-- A cutout -->
    <path d="M30,15 L21,50 L24,50 L26,42 L34,42 L36,50 L39,50 Z M28,38 L30,22 L32,38 Z" fill="#0a1628"/>
    <!-- Flame -->
    <polygon points="22,68 30,90 38,68" fill="url(#flame3)"/>
    <polygon points="24,68 30,85 36,68" fill="#ffc857"/>
  </g>
  
  <!-- Title (left aligned) -->
  <text x="100" y="200" font-family="Segoe UI, Arial, sans-serif" font-size="70" font-weight="800" fill="white" letter-spacing="2">STRAP A ROCKET</text>
  <text x="100" y="270" font-family="Segoe UI, Arial, sans-serif" font-size="70" font-weight="800" fill="url(#teal)" letter-spacing="2">TO YOUR BACK</text>
  
  <!-- Subtitle -->
  <text x="100" y="330" font-family="Segoe UI, Arial, sans-serif" font-size="36" font-weight="600" fill="#888888">Take Your CAREER to New Heights</text>
  
  <!-- CorreaX mark bottom center -->
  <g transform="translate(750, 450) scale(0.75)" opacity="0.7">
    <path d="M16 2C8.268 2 2 8.268 2 16s6.268 14 14 14c3.866 0 7.389-1.568 9.928-4.1l-3.535-3.536A9.002 9.002 0 0116 25c-4.97 0-9-4.03-9-9s4.03-9 9-9c2.29 0 4.38.857 5.971 2.268l3.464-3.639C22.993 3.352 19.66 2 16 2z" fill="#14b8a6"/>
    <path d="M20 10l-4 6 4 6h4l-4-6 4-6h-4z" fill="#14b8a6"/>
    <path d="M24 10l4 6-4 6h4l4-6-4-6h-4z" fill="#14b8a6" opacity="0.5"/>
  </g>
  <text x="785" y="476" font-family="Segoe UI, Arial, sans-serif" font-size="17" fill="#888888">CorreaX</text>
</svg>
